<mxfile host="app.diagrams.net" modified="2020-07-18T13:19:42.004Z" agent="5.0 (Macintosh; Intel Mac OS X 10_15_6) AppleWebKit/537.36 (KHTML, like Gecko) Chrome/84.0.4147.89 Safari/537.36" etag="aB7WSObwk_oAE0WRut1I" version="13.4.6" type="github">
  <diagram id="eXp2OLF2i89Emg4KGb90" name="Page-1">
    <mxGraphModel dx="1298" dy="681" grid="1" gridSize="10" guides="1" tooltips="1" connect="1" arrows="1" fold="1" page="1" pageScale="1" pageWidth="827" pageHeight="1169" math="0" shadow="0">
      <root>
        <mxCell id="0" />
        <mxCell id="1" parent="0" />
        <mxCell id="rhF8r6dZSB36x-c-CafK-5" value="" style="rounded=0;whiteSpace=wrap;html=1;shadow=0;fillColor=none;" vertex="1" parent="1">
          <mxGeometry x="80" y="90" width="370" height="290" as="geometry" />
        </mxCell>
        <mxCell id="rhF8r6dZSB36x-c-CafK-3" value="" style="ellipse;whiteSpace=wrap;html=1;" vertex="1" parent="1">
          <mxGeometry x="230" y="125" width="204.62" height="190" as="geometry" />
        </mxCell>
        <mxCell id="rhF8r6dZSB36x-c-CafK-1" value="" style="ellipse;whiteSpace=wrap;html=1;shadow=0;fillColor=none;" vertex="1" parent="1">
          <mxGeometry x="110" y="120" width="220" height="220" as="geometry" />
        </mxCell>
        <mxCell id="rhF8r6dZSB36x-c-CafK-6" value="互联网网民" style="text;html=1;resizable=0;autosize=1;align=center;verticalAlign=middle;points=[];fillColor=none;strokeColor=none;rounded=0;shadow=0;" vertex="1" parent="1">
          <mxGeometry x="354" y="340" width="80" height="20" as="geometry" />
        </mxCell>
        <mxCell id="rhF8r6dZSB36x-c-CafK-7" value="腾讯系" style="text;html=1;resizable=0;autosize=1;align=center;verticalAlign=middle;points=[];fillColor=none;strokeColor=none;rounded=0;shadow=0;" vertex="1" parent="1">
          <mxGeometry x="180" y="295" width="50" height="20" as="geometry" />
        </mxCell>
        <mxCell id="rhF8r6dZSB36x-c-CafK-8" value="阿里系" style="text;html=1;resizable=0;autosize=1;align=center;verticalAlign=middle;points=[];fillColor=none;strokeColor=none;rounded=0;shadow=0;" vertex="1" parent="1">
          <mxGeometry x="330" y="280" width="50" height="20" as="geometry" />
        </mxCell>
      </root>
    </mxGraphModel>
  </diagram>
</mxfile>
